<svg xmlns="http://www.w3.org/2000/svg" viewBox="0 0 960 620" role="img" aria-labelledby="title desc">
  <title id="title">Click Open Anyway in Privacy and Security</title>
  <desc id="desc">An illustrated macOS System Settings Privacy and Security page with the Open Anyway button highlighted.</desc>
  <defs>
    <filter id="shadow" x="-20%" y="-20%" width="140%" height="140%">
      <feDropShadow dx="0" dy="20" stdDeviation="20" flood-color="#443448" flood-opacity="0.16"/>
    </filter>
  </defs>
  <rect width="960" height="620" rx="36" fill="#f6f8fb"/>
  <rect x="86" y="64" width="788" height="500" rx="28" fill="#fff" stroke="#d9dde7" filter="url(#shadow)"/>
  <rect x="86" y="64" width="226" height="500" rx="28" fill="#eef1f7"/>
  <circle cx="122" cy="96" r="8" fill="#ff6b6b"/>
  <circle cx="148" cy="96" r="8" fill="#ffc857"/>
  <circle cx="174" cy="96" r="8" fill="#5fcf80"/>
  <rect x="118" y="148" width="162" height="38" rx="12" fill="#dfe5ef"/>
  <text x="136" y="173" font-family="-apple-system, BlinkMacSystemFont, sans-serif" font-size="18" fill="#5d6470">Search</text>
  <rect x="112" y="254" width="178" height="46" rx="13" fill="#dcefff"/>
  <text x="132" y="284" font-family="-apple-system, BlinkMacSystemFont, sans-serif" font-size="19" font-weight="800" fill="#1f1c22">Privacy &amp; Security</text>
  <text x="354" y="118" font-family="-apple-system, BlinkMacSystemFont, sans-serif" font-size="31" font-weight="800" fill="#1f1c22">Privacy &amp; Security</text>
  <rect x="350" y="166" width="470" height="78" rx="18" fill="#f6f8fb" stroke="#e2e5ec"/>
  <text x="376" y="199" font-family="-apple-system, BlinkMacSystemFont, sans-serif" font-size="20" font-weight="700" fill="#1f1c22">Security</text>
  <text x="376" y="226" font-family="-apple-system, BlinkMacSystemFont, sans-serif" font-size="17" fill="#6d6672">Apps from identified developers and trusted sources</text>
  <rect x="350" y="278" width="470" height="146" rx="20" fill="#fff8f2" stroke="#f1cfaa"/>
  <text x="378" y="318" font-family="-apple-system, BlinkMacSystemFont, sans-serif" font-size="20" font-weight="800" fill="#1f1c22">SlackerBuddy was blocked from use.</text>
  <text x="378" y="352" font-family="-apple-system, BlinkMacSystemFont, sans-serif" font-size="18" fill="#6d6672">Close the original warning window first.</text>
  <rect x="610" y="366" width="172" height="42" rx="12" fill="#1f1c22"/>
  <text x="696" y="393" text-anchor="middle" font-family="-apple-system, BlinkMacSystemFont, sans-serif" font-size="18" font-weight="800" fill="#fff">Open Anyway</text>
  <rect x="600" y="356" width="192" height="62" rx="16" fill="none" stroke="#49aee8" stroke-width="5"/>
  <path d="M614 438l-56 62" stroke="#49aee8" stroke-width="8" stroke-linecap="round"/>
  <circle cx="558" cy="500" r="13" fill="#49aee8"/>
  <text x="378" y="504" font-family="-apple-system, BlinkMacSystemFont, sans-serif" font-size="24" font-weight="800" fill="#1f1c22">3</text>
  <text x="416" y="504" font-family="-apple-system, BlinkMacSystemFont, sans-serif" font-size="23" fill="#6d6672">Click Open Anyway to finish</text>
</svg>
