<svg xmlns="http://www.w3.org/2000/svg" viewBox="0 0 960 620" role="img" aria-labelledby="title desc">
  <title id="title">Control-click SlackerBuddy and choose Open</title>
  <desc id="desc">An illustrated macOS Applications window showing SlackerBuddy.app with a context menu and the Open item highlighted.</desc>
  <defs>
    <filter id="shadow" x="-20%" y="-20%" width="140%" height="140%">
      <feDropShadow dx="0" dy="18" stdDeviation="18" flood-color="#443448" flood-opacity="0.16"/>
    </filter>
  </defs>
  <rect width="960" height="620" rx="36" fill="#f6f8fb"/>
  <rect x="78" y="66" width="804" height="488" rx="26" fill="#fff" stroke="#d9dde7" filter="url(#shadow)"/>
  <rect x="78" y="66" width="804" height="58" rx="26" fill="#eef1f7"/>
  <circle cx="112" cy="95" r="9" fill="#ff6b6b"/>
  <circle cx="140" cy="95" r="9" fill="#ffc857"/>
  <circle cx="168" cy="95" r="9" fill="#5fcf80"/>
  <text x="470" y="102" text-anchor="middle" font-family="-apple-system, BlinkMacSystemFont, sans-serif" font-size="20" font-weight="700" fill="#34313a">Applications</text>
  <rect x="124" y="156" width="230" height="316" rx="22" fill="#f7f3f7" stroke="#e3dce7"/>
  <rect x="168" y="202" width="142" height="142" rx="34" fill="#fff" stroke="#ded8e0"/>
  <path d="M239 286c-39 0-63-28-63-62 0-43 29-76 63-76s63 33 63 76c0 34-24 62-63 62z" fill="#fff"/>
  <ellipse cx="203" cy="233" rx="20" ry="30" fill="#ff9aa8" stroke="#554b56" stroke-width="10"/>
  <ellipse cx="239" cy="214" rx="20" ry="31" fill="#ff9aa8" stroke="#554b56" stroke-width="10"/>
  <ellipse cx="275" cy="233" rx="20" ry="30" fill="#ff9aa8" stroke="#554b56" stroke-width="10"/>
  <path d="M196 291c12-37 30-54 43-54s31 17 43 54c9 29-12 45-43 45s-52-16-43-45z" fill="#ff9aa8" stroke="#554b56" stroke-width="10" stroke-linejoin="round"/>
  <text x="239" y="398" text-anchor="middle" font-family="-apple-system, BlinkMacSystemFont, sans-serif" font-size="23" font-weight="700" fill="#28252c">SlackerBuddy.app</text>
  <rect x="374" y="188" width="270" height="232" rx="18" fill="#fff" stroke="#d8d2dc" filter="url(#shadow)"/>
  <text x="406" y="234" font-family="-apple-system, BlinkMacSystemFont, sans-serif" font-size="22" fill="#312d35">Open</text>
  <rect x="392" y="204" width="220" height="48" rx="10" fill="none" stroke="#49aee8" stroke-width="4"/>
  <text x="406" y="284" font-family="-apple-system, BlinkMacSystemFont, sans-serif" font-size="22" fill="#6d6672">Show Package Contents</text>
  <text x="406" y="334" font-family="-apple-system, BlinkMacSystemFont, sans-serif" font-size="22" fill="#6d6672">Move to Trash</text>
  <text x="406" y="384" font-family="-apple-system, BlinkMacSystemFont, sans-serif" font-size="22" fill="#6d6672">Get Info</text>
  <path d="M660 214l52-46" stroke="#49aee8" stroke-width="8" stroke-linecap="round"/>
  <circle cx="718" cy="162" r="15" fill="#49aee8"/>
  <text x="710" y="236" font-family="-apple-system, BlinkMacSystemFont, sans-serif" font-size="24" font-weight="800" fill="#1f1c22">1</text>
  <text x="710" y="270" font-family="-apple-system, BlinkMacSystemFont, sans-serif" font-size="25" font-weight="700" fill="#1f1c22">Control-click</text>
  <text x="710" y="306" font-family="-apple-system, BlinkMacSystemFont, sans-serif" font-size="22" fill="#6d6672">then choose Open</text>
</svg>
